<svg id="visual" viewBox="0 0 900 600" width="900" height="600" xmlns="http://www.w3.org/2000/svg" xmlns:xlink="http://www.w3.org/1999/xlink" version="1.1"><g><g transform="translate(355 168)"><path d="M0 -13.1L11.4 -6.6L11.4 6.6L0 13.1L-11.4 6.6L-11.4 -6.6Z" stroke="#2B3236" fill="none" stroke-width="2"></path></g><g transform="translate(342 25)"><path d="M0 -4L3.5 -2L3.5 2L0 4L-3.5 2L-3.5 -2Z" stroke="#2B3236" fill="none" stroke-width="2"></path></g><g transform="translate(402 50)"><path d="M0 -9L7.8 -4.5L7.8 4.5L0 9L-7.8 4.5L-7.8 -4.5Z" stroke="#2B3236" fill="none" stroke-width="2"></path></g><g transform="translate(474 471)"><path d="M0 -1L0.9 -0.5L0.9 0.5L0 1L-0.9 0.5L-0.9 -0.5Z" stroke="#2B3236" fill="none" stroke-width="2"></path></g><g transform="translate(496 30)"><path d="M0 -6L5.2 -3L5.2 3L0 6L-5.2 3L-5.2 -3Z" stroke="#2B3236" fill="none" stroke-width="2"></path></g><g transform="translate(728 588)"><path d="M0 -4L3.5 -2L3.5 2L0 4L-3.5 2L-3.5 -2Z" stroke="#2B3236" fill="none" stroke-width="2"></path></g><g transform="translate(661 513)"><path d="M0 -8L6.9 -4L6.9 4L0 8L-6.9 4L-6.9 -4Z" stroke="#2B3236" fill="none" stroke-width="2"></path></g><g transform="translate(861 197)"><path d="M0 -2L1.7 -1L1.7 1L0 2L-1.7 1L-1.7 -1Z" stroke="#2B3236" fill="none" stroke-width="2"></path></g><g transform="translate(551 48)"><path d="M0 -5L4.3 -2.5L4.3 2.5L0 5L-4.3 2.5L-4.3 -2.5Z" stroke="#2B3236" fill="none" stroke-width="2"></path></g><g transform="translate(508 507)"><path d="M0 -11L9.5 -5.5L9.5 5.5L0 11L-9.5 5.5L-9.5 -5.5Z" stroke="#2B3236" fill="none" stroke-width="2"></path></g><g transform="translate(228 90)"><path d="M0 -7L6.1 -3.5L6.1 3.5L0 7L-6.1 3.5L-6.1 -3.5Z" stroke="#2B3236" fill="none" stroke-width="2"></path></g><g transform="translate(61 462)"><path d="M0 -6L5.2 -3L5.2 3L0 6L-5.2 3L-5.2 -3Z" stroke="#2B3236" fill="none" stroke-width="2"></path></g><g transform="translate(114 464)"><path d="M0 -2L1.7 -1L1.7 1L0 2L-1.7 1L-1.7 -1Z" stroke="#2B3236" fill="none" stroke-width="2"></path></g><g transform="translate(54 317)"><path d="M0 -1L0.9 -0.5L0.9 0.5L0 1L-0.9 0.5L-0.9 -0.5Z" stroke="#2B3236" fill="none" stroke-width="2"></path></g><g transform="translate(856 508)"><path d="M0 -6L5.2 -3L5.2 3L0 6L-5.2 3L-5.2 -3Z" stroke="#2B3236" fill="none" stroke-width="2"></path></g><g transform="translate(484 304)"><path d="M0 -10L8.7 -5L8.7 5L0 10L-8.7 5L-8.7 -5Z" stroke="#2B3236" fill="none" stroke-width="2"></path></g><g transform="translate(622 418)"><path d="M0 -1L0.9 -0.5L0.9 0.5L0 1L-0.9 0.5L-0.9 -0.5Z" stroke="#2B3236" fill="none" stroke-width="2"></path></g><g transform="translate(856 415)"><path d="M0 -6L5.2 -3L5.2 3L0 6L-5.2 3L-5.2 -3Z" stroke="#2B3236" fill="none" stroke-width="2"></path></g><g transform="translate(146 506)"><path d="M0 -12L10.4 -6L10.4 6L0 12L-10.4 6L-10.4 -6Z" stroke="#2B3236" fill="none" stroke-width="2"></path></g><g transform="translate(570 342)"><path d="M0 -11L9.5 -5.5L9.5 5.5L0 11L-9.5 5.5L-9.5 -5.5Z" stroke="#2B3236" fill="none" stroke-width="2"></path></g><g transform="translate(626 232)"><path d="M0 -2L1.7 -1L1.7 1L0 2L-1.7 1L-1.7 -1Z" stroke="#2B3236" fill="none" stroke-width="2"></path></g></g></svg>